# ChopIt layered axe slash: SM_AxeSlash_Afterimage
# Forward axis: +X; 110 degree visual arc; centimeters
o SM_AxeSlash_Afterimage
v 44.218267 -70.764020 0.000000
v 46.029640 -73.662823 0.000000
v 46.086224 -65.246023 0.000000
v 48.051115 -68.027794 0.000000
v 50.904807 -64.063588 0.000000
v 57.790806 -72.729602 0.000000
v 55.342748 -62.102501 0.000000
v 60.949950 -68.394586 0.000000
v 56.389509 -56.505414 0.000000
v 62.657118 -62.785906 0.000000
v 60.208518 -53.877136 0.000000
v 71.128482 -63.648784 0.000000
v 65.784649 -52.493083 0.000000
v 73.396989 -58.567376 0.000000
v 66.815155 -47.400515 0.000000
v 79.085243 -56.105254 0.000000
v 68.563217 -43.039058 0.000000
v 82.583359 -51.839895 0.000000
v 73.846353 -40.735706 0.000000
v 85.418515 -47.119233 0.000000
v 74.780723 -35.904468 0.000000
v 93.027439 -44.665264 0.000000
v 73.799249 -30.435585 0.000000
v 89.109959 -36.749882 0.000000
v 77.755519 -27.041538 0.000000
v 93.750976 -32.604381 0.000000
v 79.697156 -22.764268 0.000000
v 100.056571 -28.579622 0.000000
v 77.576978 -17.491096 0.000000
v 92.066124 -20.757930 0.000000
v 80.199336 -13.378448 0.000000
v 98.993674 -16.513625 0.000000
v 83.650124 -9.139451 0.000000
v 101.842983 -11.127168 0.000000
v 81.332542 -4.262458 0.000000
v 95.373143 -4.998295 0.000000
v 81.302447 0.333883 0.000000
v 101.329291 0.416127 0.000000
v 84.430584 5.120494 0.000000
v 99.717780 6.047622 0.000000
v 81.862032 9.625099 0.000000
v 97.983036 11.520560 0.000000
v 78.707878 13.795019 0.000000
v 98.583995 17.278677 0.000000
v 80.592875 18.867974 0.000000
v 94.537884 22.132705 0.000000
v 79.126695 23.305909 0.000000
v 97.655515 28.763371 0.000000
v 74.716042 26.674354 0.000000
v 91.689840 32.734165 0.000000
v 75.401416 31.823441 0.000000
v 88.349652 37.288291 0.000000
v 75.427725 36.980473 0.000000
v 92.656895 45.427537 0.000000
v 70.628226 39.720568 0.000000
v 81.873897 46.045015 0.000000
v 68.871168 44.025027 0.000000
v 79.796455 51.008879 0.000000
v 68.687169 49.581641 0.000000
v 80.584482 58.169683 0.000000
v 63.589805 51.602195 0.000000
v 69.251783 56.196807 0.000000
v 59.258607 53.910063 0.000000
v 67.511065 61.417674 0.000000
v 58.245027 59.331462 0.000000
v 63.794517 64.984466 0.000000
v 54.062042 61.677871 0.000000
v 56.205291 64.123044 0.000000
v 48.804827 62.467329 0.000000
v 51.358879 65.736367 0.000000
vt 0.000000 0.000000
vt 0.000000 1.000000
vt 0.029412 0.000000
vt 0.029412 1.000000
vt 0.058824 0.000000
vt 0.058824 1.000000
vt 0.088235 0.000000
vt 0.088235 1.000000
vt 0.117647 0.000000
vt 0.117647 1.000000
vt 0.147059 0.000000
vt 0.147059 1.000000
vt 0.176471 0.000000
vt 0.176471 1.000000
vt 0.205882 0.000000
vt 0.205882 1.000000
vt 0.235294 0.000000
vt 0.235294 1.000000
vt 0.264706 0.000000
vt 0.264706 1.000000
vt 0.294118 0.000000
vt 0.294118 1.000000
vt 0.323529 0.000000
vt 0.323529 1.000000
vt 0.352941 0.000000
vt 0.352941 1.000000
vt 0.382353 0.000000
vt 0.382353 1.000000
vt 0.411765 0.000000
vt 0.411765 1.000000
vt 0.441176 0.000000
vt 0.441176 1.000000
vt 0.470588 0.000000
vt 0.470588 1.000000
vt 0.500000 0.000000
vt 0.500000 1.000000
vt 0.529412 0.000000
vt 0.529412 1.000000
vt 0.558824 0.000000
vt 0.558824 1.000000
vt 0.588235 0.000000
vt 0.588235 1.000000
vt 0.617647 0.000000
vt 0.617647 1.000000
vt 0.647059 0.000000
vt 0.647059 1.000000
vt 0.676471 0.000000
vt 0.676471 1.000000
vt 0.705882 0.000000
vt 0.705882 1.000000
vt 0.735294 0.000000
vt 0.735294 1.000000
vt 0.764706 0.000000
vt 0.764706 1.000000
vt 0.794118 0.000000
vt 0.794118 1.000000
vt 0.823529 0.000000
vt 0.823529 1.000000
vt 0.852941 0.000000
vt 0.852941 1.000000
vt 0.882353 0.000000
vt 0.882353 1.000000
vt 0.911765 0.000000
vt 0.911765 1.000000
vt 0.941176 0.000000
vt 0.941176 1.000000
vt 0.970588 0.000000
vt 0.970588 1.000000
vt 1.000000 0.000000
vt 1.000000 1.000000
vn 0.000000 0.000000 1.000000
usemtl M_AxeSlash
f 1/1/1 2/2/1 4/4/1 3/3/1
f 3/3/1 4/4/1 6/6/1 5/5/1
f 5/5/1 6/6/1 8/8/1 7/7/1
f 7/7/1 8/8/1 10/10/1 9/9/1
f 9/9/1 10/10/1 12/12/1 11/11/1
f 11/11/1 12/12/1 14/14/1 13/13/1
f 13/13/1 14/14/1 16/16/1 15/15/1
f 15/15/1 16/16/1 18/18/1 17/17/1
f 17/17/1 18/18/1 20/20/1 19/19/1
f 19/19/1 20/20/1 22/22/1 21/21/1
f 21/21/1 22/22/1 24/24/1 23/23/1
f 23/23/1 24/24/1 26/26/1 25/25/1
f 25/25/1 26/26/1 28/28/1 27/27/1
f 27/27/1 28/28/1 30/30/1 29/29/1
f 29/29/1 30/30/1 32/32/1 31/31/1
f 31/31/1 32/32/1 34/34/1 33/33/1
f 33/33/1 34/34/1 36/36/1 35/35/1
f 35/35/1 36/36/1 38/38/1 37/37/1
f 37/37/1 38/38/1 40/40/1 39/39/1
f 39/39/1 40/40/1 42/42/1 41/41/1
f 41/41/1 42/42/1 44/44/1 43/43/1
f 43/43/1 44/44/1 46/46/1 45/45/1
f 45/45/1 46/46/1 48/48/1 47/47/1
f 47/47/1 48/48/1 50/50/1 49/49/1
f 49/49/1 50/50/1 52/52/1 51/51/1
f 51/51/1 52/52/1 54/54/1 53/53/1
f 53/53/1 54/54/1 56/56/1 55/55/1
f 55/55/1 56/56/1 58/58/1 57/57/1
f 57/57/1 58/58/1 60/60/1 59/59/1
f 59/59/1 60/60/1 62/62/1 61/61/1
f 61/61/1 62/62/1 64/64/1 63/63/1
f 63/63/1 64/64/1 66/66/1 65/65/1
f 65/65/1 66/66/1 68/68/1 67/67/1
f 67/67/1 68/68/1 70/70/1 69/69/1
