# ChopIt layered axe slash: SM_AxeSlash_Inner
# Forward axis: +X; 110 degree visual arc; centimeters
o SM_AxeSlash_Inner
v 36.039189 -47.825619 0.000000
v 38.461993 -51.040788 0.000000
v 37.671549 -44.055791 0.000000
v 40.677537 -47.571208 0.000000
v 39.849733 -41.169634 0.000000
v 45.090792 -46.584287 0.000000
v 43.413995 -39.642425 0.000000
v 50.035595 -45.688777 0.000000
v 44.758120 -36.072277 0.000000
v 49.903339 -40.219006 0.000000
v 45.803364 -32.470612 0.000000
v 54.187624 -38.414325 0.000000
v 49.436174 -30.651726 0.000000
v 56.977790 -35.327726 0.000000
v 51.606885 -27.748728 0.000000
v 59.452818 -31.967442 0.000000
v 51.918168 -23.916294 0.000000
v 63.151713 -29.091067 0.000000
v 54.697689 -21.215835 0.000000
v 63.948246 -24.803890 0.000000
v 56.986494 -18.150187 0.000000
v 69.195211 -22.038661 0.000000
v 55.962515 -14.091429 0.000000
v 69.515043 -17.503972 0.000000
v 56.544478 -10.582012 0.000000
v 68.294033 -12.780881 0.000000
v 58.420761 -7.242178 0.000000
v 73.875694 -9.158061 0.000000
v 57.071095 -3.523946 0.000000
v 70.445643 -4.349778 0.000000
v 56.258045 0.000000 0.000000
v 69.163743 0.000000 0.000000
v 58.290357 3.599231 0.000000
v 73.145360 4.516477 0.000000
v 57.901254 7.177777 0.000000
v 68.762315 8.524177 0.000000
v 56.145939 10.507427 0.000000
v 68.574139 12.833301 0.000000
v 57.184168 14.399043 0.000000
v 68.976261 17.368306 0.000000
v 56.846621 18.105637 0.000000
v 65.861679 20.976931 0.000000
v 53.610387 20.794099 0.000000
v 65.367871 25.354526 0.000000
v 52.490480 24.179931 0.000000
v 61.680701 28.413440 0.000000
v 51.851642 27.880333 0.000000
v 60.889544 32.739962 0.000000
v 48.348127 29.977109 0.000000
v 58.875512 36.504364 0.000000
v 46.041026 32.639094 0.000000
v 53.206140 37.718538 0.000000
v 45.610392 36.759156 0.000000
v 53.990548 43.513043 0.000000
v 42.879593 39.154449 0.000000
v 49.867084 45.534905 0.000000
v 39.750414 41.067026 0.000000
v 43.912801 45.367279 0.000000
v 38.505053 45.030549 0.000000
v 43.252865 50.582979 0.000000
v 35.779600 47.481133 0.000000
v 35.850772 47.575582 0.000000
vt 0.000000 0.000000
vt 0.000000 1.000000
vt 0.033333 0.000000
vt 0.033333 1.000000
vt 0.066667 0.000000
vt 0.066667 1.000000
vt 0.100000 0.000000
vt 0.100000 1.000000
vt 0.133333 0.000000
vt 0.133333 1.000000
vt 0.166667 0.000000
vt 0.166667 1.000000
vt 0.200000 0.000000
vt 0.200000 1.000000
vt 0.233333 0.000000
vt 0.233333 1.000000
vt 0.266667 0.000000
vt 0.266667 1.000000
vt 0.300000 0.000000
vt 0.300000 1.000000
vt 0.333333 0.000000
vt 0.333333 1.000000
vt 0.366667 0.000000
vt 0.366667 1.000000
vt 0.400000 0.000000
vt 0.400000 1.000000
vt 0.433333 0.000000
vt 0.433333 1.000000
vt 0.466667 0.000000
vt 0.466667 1.000000
vt 0.500000 0.000000
vt 0.500000 1.000000
vt 0.533333 0.000000
vt 0.533333 1.000000
vt 0.566667 0.000000
vt 0.566667 1.000000
vt 0.600000 0.000000
vt 0.600000 1.000000
vt 0.633333 0.000000
vt 0.633333 1.000000
vt 0.666667 0.000000
vt 0.666667 1.000000
vt 0.700000 0.000000
vt 0.700000 1.000000
vt 0.733333 0.000000
vt 0.733333 1.000000
vt 0.766667 0.000000
vt 0.766667 1.000000
vt 0.800000 0.000000
vt 0.800000 1.000000
vt 0.833333 0.000000
vt 0.833333 1.000000
vt 0.866667 0.000000
vt 0.866667 1.000000
vt 0.900000 0.000000
vt 0.900000 1.000000
vt 0.933333 0.000000
vt 0.933333 1.000000
vt 0.966667 0.000000
vt 0.966667 1.000000
vt 1.000000 0.000000
vt 1.000000 1.000000
vn 0.000000 0.000000 1.000000
usemtl M_AxeSlash
f 1/1/1 2/2/1 4/4/1 3/3/1
f 3/3/1 4/4/1 6/6/1 5/5/1
f 5/5/1 6/6/1 8/8/1 7/7/1
f 7/7/1 8/8/1 10/10/1 9/9/1
f 9/9/1 10/10/1 12/12/1 11/11/1
f 11/11/1 12/12/1 14/14/1 13/13/1
f 13/13/1 14/14/1 16/16/1 15/15/1
f 15/15/1 16/16/1 18/18/1 17/17/1
f 17/17/1 18/18/1 20/20/1 19/19/1
f 19/19/1 20/20/1 22/22/1 21/21/1
f 21/21/1 22/22/1 24/24/1 23/23/1
f 23/23/1 24/24/1 26/26/1 25/25/1
f 25/25/1 26/26/1 28/28/1 27/27/1
f 27/27/1 28/28/1 30/30/1 29/29/1
f 29/29/1 30/30/1 32/32/1 31/31/1
f 31/31/1 32/32/1 34/34/1 33/33/1
f 33/33/1 34/34/1 36/36/1 35/35/1
f 35/35/1 36/36/1 38/38/1 37/37/1
f 37/37/1 38/38/1 40/40/1 39/39/1
f 39/39/1 40/40/1 42/42/1 41/41/1
f 41/41/1 42/42/1 44/44/1 43/43/1
f 43/43/1 44/44/1 46/46/1 45/45/1
f 45/45/1 46/46/1 48/48/1 47/47/1
f 47/47/1 48/48/1 50/50/1 49/49/1
f 49/49/1 50/50/1 52/52/1 51/51/1
f 51/51/1 52/52/1 54/54/1 53/53/1
f 53/53/1 54/54/1 56/56/1 55/55/1
f 55/55/1 56/56/1 58/58/1 57/57/1
f 57/57/1 58/58/1 60/60/1 59/59/1
f 59/59/1 60/60/1 62/62/1 61/61/1
