# ChopIt layered axe slash: SM_AxeSlash_Main
# Forward axis: +X; 110 degree visual arc; centimeters
o SM_AxeSlash_Main
v 40.686417 -58.106226 0.000000
v 42.217139 -60.292323 0.000000
v 44.670302 -56.284180 0.000000
v 52.625779 -66.308010 0.000000
v 46.190978 -51.525898 0.000000
v 55.065806 -61.425742 0.000000
v 49.956695 -49.414702 0.000000
v 65.128479 -64.421885 0.000000
v 54.000534 -47.357197 0.000000
v 68.719692 -60.265552 0.000000
v 54.408455 -42.222539 0.000000
v 71.396912 -55.406075 0.000000
v 56.366678 -38.558955 0.000000
v 77.872265 -53.270359 0.000000
v 60.804402 -36.444756 0.000000
v 79.575807 -47.695903 0.000000
v 61.669247 -32.102978 0.000000
v 85.491633 -44.504127 0.000000
v 62.304162 -27.821075 0.000000
v 87.100864 -38.893705 0.000000
v 66.742084 -25.119942 0.000000
v 90.183335 -33.942604 0.000000
v 68.344613 -21.139854 0.000000
v 98.205945 -30.376341 0.000000
v 67.066881 -16.411161 0.000000
v 94.382255 -23.095191 0.000000
v 69.542056 -12.653607 0.000000
v 99.107429 -18.033209 0.000000
v 71.167550 -8.580714 0.000000
v 104.675646 -12.620805 0.000000
v 68.397625 -4.108494 0.000000
v 97.531883 -5.858524 0.000000
v 68.642493 0.000000 0.000000
v 102.369018 0.000000 0.000000
v 70.865279 4.256720 0.000000
v 103.104192 6.193240 0.000000
v 68.613137 8.272727 0.000000
v 97.484517 11.753766 0.000000
v 67.319281 12.249159 0.000000
v 100.040910 18.203062 0.000000
v 69.574037 17.024659 0.000000
v 96.510927 23.616074 0.000000
v 67.985916 21.028904 0.000000
v 94.891231 29.351058 0.000000
v 64.572630 24.303417 0.000000
v 92.219222 34.708857 0.000000
v 64.912444 28.985768 0.000000
v 86.517833 38.633360 0.000000
v 63.372720 32.989750 0.000000
v 87.715047 45.661563 0.000000
v 58.537027 35.085744 0.000000
v 79.817585 47.840820 0.000000
v 56.981537 38.979564 0.000000
v 74.883299 51.225687 0.000000
v 56.084277 43.523025 0.000000
v 76.075693 59.036944 0.000000
v 51.665587 45.309504 0.000000
v 65.885456 57.779994 0.000000
v 48.846348 48.316402 0.000000
v 62.191642 61.516910 0.000000
v 47.965355 53.505210 0.000000
v 59.795619 66.701835 0.000000
v 43.984856 55.420524 0.000000
v 49.506629 62.377909 0.000000
v 39.605374 56.562335 0.000000
v 41.629848 59.453584 0.000000
vt 0.000000 0.000000
vt 0.000000 1.000000
vt 0.031250 0.000000
vt 0.031250 1.000000
vt 0.062500 0.000000
vt 0.062500 1.000000
vt 0.093750 0.000000
vt 0.093750 1.000000
vt 0.125000 0.000000
vt 0.125000 1.000000
vt 0.156250 0.000000
vt 0.156250 1.000000
vt 0.187500 0.000000
vt 0.187500 1.000000
vt 0.218750 0.000000
vt 0.218750 1.000000
vt 0.250000 0.000000
vt 0.250000 1.000000
vt 0.281250 0.000000
vt 0.281250 1.000000
vt 0.312500 0.000000
vt 0.312500 1.000000
vt 0.343750 0.000000
vt 0.343750 1.000000
vt 0.375000 0.000000
vt 0.375000 1.000000
vt 0.406250 0.000000
vt 0.406250 1.000000
vt 0.437500 0.000000
vt 0.437500 1.000000
vt 0.468750 0.000000
vt 0.468750 1.000000
vt 0.500000 0.000000
vt 0.500000 1.000000
vt 0.531250 0.000000
vt 0.531250 1.000000
vt 0.562500 0.000000
vt 0.562500 1.000000
vt 0.593750 0.000000
vt 0.593750 1.000000
vt 0.625000 0.000000
vt 0.625000 1.000000
vt 0.656250 0.000000
vt 0.656250 1.000000
vt 0.687500 0.000000
vt 0.687500 1.000000
vt 0.718750 0.000000
vt 0.718750 1.000000
vt 0.750000 0.000000
vt 0.750000 1.000000
vt 0.781250 0.000000
vt 0.781250 1.000000
vt 0.812500 0.000000
vt 0.812500 1.000000
vt 0.843750 0.000000
vt 0.843750 1.000000
vt 0.875000 0.000000
vt 0.875000 1.000000
vt 0.906250 0.000000
vt 0.906250 1.000000
vt 0.937500 0.000000
vt 0.937500 1.000000
vt 0.968750 0.000000
vt 0.968750 1.000000
vt 1.000000 0.000000
vt 1.000000 1.000000
vn 0.000000 0.000000 1.000000
usemtl M_AxeSlash
f 1/1/1 2/2/1 4/4/1 3/3/1
f 3/3/1 4/4/1 6/6/1 5/5/1
f 5/5/1 6/6/1 8/8/1 7/7/1
f 7/7/1 8/8/1 10/10/1 9/9/1
f 9/9/1 10/10/1 12/12/1 11/11/1
f 11/11/1 12/12/1 14/14/1 13/13/1
f 13/13/1 14/14/1 16/16/1 15/15/1
f 15/15/1 16/16/1 18/18/1 17/17/1
f 17/17/1 18/18/1 20/20/1 19/19/1
f 19/19/1 20/20/1 22/22/1 21/21/1
f 21/21/1 22/22/1 24/24/1 23/23/1
f 23/23/1 24/24/1 26/26/1 25/25/1
f 25/25/1 26/26/1 28/28/1 27/27/1
f 27/27/1 28/28/1 30/30/1 29/29/1
f 29/29/1 30/30/1 32/32/1 31/31/1
f 31/31/1 32/32/1 34/34/1 33/33/1
f 33/33/1 34/34/1 36/36/1 35/35/1
f 35/35/1 36/36/1 38/38/1 37/37/1
f 37/37/1 38/38/1 40/40/1 39/39/1
f 39/39/1 40/40/1 42/42/1 41/41/1
f 41/41/1 42/42/1 44/44/1 43/43/1
f 43/43/1 44/44/1 46/46/1 45/45/1
f 45/45/1 46/46/1 48/48/1 47/47/1
f 47/47/1 48/48/1 50/50/1 49/49/1
f 49/49/1 50/50/1 52/52/1 51/51/1
f 51/51/1 52/52/1 54/54/1 53/53/1
f 53/53/1 54/54/1 56/56/1 55/55/1
f 55/55/1 56/56/1 58/58/1 57/57/1
f 57/57/1 58/58/1 60/60/1 59/59/1
f 59/59/1 60/60/1 62/62/1 61/61/1
f 61/61/1 62/62/1 64/64/1 63/63/1
f 63/63/1 64/64/1 66/66/1 65/65/1
